<svg xmlns="http://www.w3.org/2000/svg" xmlns:xlink="http://www.w3.org/1999/xlink" width= "1513.7173592966853" height="179.00586025666547" viewBox="-40 -82.50293012833274 1513.7173592966853 179.00586025666547">
<line x1="0" y1="10.400000000000002" x2="0" y2="-21.599999999999998" stroke-width="1" stroke-dasharray="none" stroke="rgb(0, 0, 0)"/>
<line x1="1.9331820449317627" y1="10.400000000000002" x2="1.9331820449317627" y2="-21.599999999999998" stroke-width="1" stroke-dasharray="1" stroke="rgb(0, 0, 0)"/>
<line x1="19.398969044771427" y1="21.6" x2="19.398969044771427" y2="-10.400000000000002" stroke-width="1" stroke-dasharray="none" stroke="rgb(0, 0, 0)"/>
<line x1="21.33215108970319" y1="21.6" x2="21.33215108970319" y2="-10.400000000000002" stroke-width="1" stroke-dasharray="none" stroke="rgb(0, 0, 0)"/>
<line x1="0" y1="10.400000000000002" x2="19.398969044771427" y2="21.6" stroke-width="1" stroke-dasharray="none" stroke="rgb(0, 0, 0)"/>
<line x1="0" y1="-21.599999999999998" x2="19.398969044771427" y2="-10.400000000000002" stroke-width="1" stroke-dasharray="none" stroke="rgb(0, 0, 0)"/>
<line x1="1.9331820449317627" y1="10.400000000000002" x2="21.33215108970319" y2="21.6" stroke-width="1" stroke-dasharray="1" stroke="rgb(0, 0, 0)"/>
<line x1="1.9331820449317627" y1="-21.599999999999998" x2="21.33215108970319" y2="-10.400000000000002" stroke-width="1" stroke-dasharray="none" stroke="rgb(0, 0, 0)"/>
<line x1="0" y1="10.400000000000002" x2="1.9331820449317627" y2="10.400000000000002" stroke-width="1" stroke-dasharray="1" stroke="rgb(0, 0, 0)"/>
<line x1="19.398969044771427" y1="21.6" x2="21.33215108970319" y2="21.6" stroke-width="1" stroke-dasharray="none" stroke="rgb(0, 0, 0)"/>
<line x1="0" y1="-21.599999999999998" x2="1.9331820449317627" y2="-21.599999999999998" stroke-width="1" stroke-dasharray="none" stroke="rgb(0, 0, 0)"/>
<line x1="19.398969044771427" y1="-10.400000000000002" x2="21.33215108970319" y2="-10.400000000000002" stroke-width="1" stroke-dasharray="none" stroke="rgb(0, 0, 0)"/>
<text x="10.666075544851594" y="-31.599999999999998" font-family="arial" font-size="14px" text-anchor="middle" fill="rgb(0, 0, 0)">32x32x3</text>
<line x1="121.33215108970319" y1="10.400000000000002" x2="121.33215108970319" y2="-21.599999999999998" stroke-width="1" stroke-dasharray="none" stroke="rgb(0, 0, 0)"/>
<line x1="129.3321510897032" y1="10.400000000000002" x2="129.3321510897032" y2="-21.599999999999998" stroke-width="1" stroke-dasharray="1" stroke="rgb(0, 0, 0)"/>
<line x1="140.73112013447462" y1="21.6" x2="140.73112013447462" y2="-10.400000000000002" stroke-width="1" stroke-dasharray="none" stroke="rgb(0, 0, 0)"/>
<line x1="148.73112013447462" y1="21.6" x2="148.73112013447462" y2="-10.400000000000002" stroke-width="1" stroke-dasharray="none" stroke="rgb(0, 0, 0)"/>
<line x1="121.33215108970319" y1="10.400000000000002" x2="140.73112013447462" y2="21.6" stroke-width="1" stroke-dasharray="none" stroke="rgb(0, 0, 0)"/>
<line x1="121.33215108970319" y1="-21.599999999999998" x2="140.73112013447462" y2="-10.400000000000002" stroke-width="1" stroke-dasharray="none" stroke="rgb(0, 0, 0)"/>
<line x1="129.3321510897032" y1="10.400000000000002" x2="148.73112013447462" y2="21.6" stroke-width="1" stroke-dasharray="1" stroke="rgb(0, 0, 0)"/>
<line x1="129.3321510897032" y1="-21.599999999999998" x2="148.73112013447462" y2="-10.400000000000002" stroke-width="1" stroke-dasharray="none" stroke="rgb(0, 0, 0)"/>
<line x1="121.33215108970319" y1="10.400000000000002" x2="129.3321510897032" y2="10.400000000000002" stroke-width="1" stroke-dasharray="1" stroke="rgb(0, 0, 0)"/>
<line x1="140.73112013447462" y1="21.6" x2="148.73112013447462" y2="21.6" stroke-width="1" stroke-dasharray="none" stroke="rgb(0, 0, 0)"/>
<line x1="121.33215108970319" y1="-21.599999999999998" x2="129.3321510897032" y2="-21.599999999999998" stroke-width="1" stroke-dasharray="none" stroke="rgb(0, 0, 0)"/>
<line x1="140.73112013447462" y1="-10.400000000000002" x2="148.73112013447462" y2="-10.400000000000002" stroke-width="1" stroke-dasharray="none" stroke="rgb(0, 0, 0)"/>
<text x="135.0316356120889" y="-31.599999999999998" font-family="arial" font-size="14px" text-anchor="middle" fill="rgb(0, 0, 0)">32x32x32</text>
<line x1="248.73112013447462" y1="10.400000000000002" x2="248.73112013447462" y2="-21.599999999999998" stroke-width="1" stroke-dasharray="none" stroke="rgb(0, 0, 0)"/>
<line x1="256.7311201344746" y1="10.400000000000002" x2="256.7311201344746" y2="-21.599999999999998" stroke-width="1" stroke-dasharray="1" stroke="rgb(0, 0, 0)"/>
<line x1="268.13008917924606" y1="21.6" x2="268.13008917924606" y2="-10.400000000000002" stroke-width="1" stroke-dasharray="none" stroke="rgb(0, 0, 0)"/>
<line x1="276.13008917924606" y1="21.6" x2="276.13008917924606" y2="-10.400000000000002" stroke-width="1" stroke-dasharray="none" stroke="rgb(0, 0, 0)"/>
<line x1="248.73112013447462" y1="10.400000000000002" x2="268.13008917924606" y2="21.6" stroke-width="1" stroke-dasharray="none" stroke="rgb(0, 0, 0)"/>
<line x1="248.73112013447462" y1="-21.599999999999998" x2="268.13008917924606" y2="-10.400000000000002" stroke-width="1" stroke-dasharray="none" stroke="rgb(0, 0, 0)"/>
<line x1="256.7311201344746" y1="10.400000000000002" x2="276.13008917924606" y2="21.6" stroke-width="1" stroke-dasharray="1" stroke="rgb(0, 0, 0)"/>
<line x1="256.7311201344746" y1="-21.599999999999998" x2="276.13008917924606" y2="-10.400000000000002" stroke-width="1" stroke-dasharray="none" stroke="rgb(0, 0, 0)"/>
<line x1="248.73112013447462" y1="10.400000000000002" x2="256.7311201344746" y2="10.400000000000002" stroke-width="1" stroke-dasharray="1" stroke="rgb(0, 0, 0)"/>
<line x1="268.13008917924606" y1="21.6" x2="276.13008917924606" y2="21.6" stroke-width="1" stroke-dasharray="none" stroke="rgb(0, 0, 0)"/>
<line x1="248.73112013447462" y1="-21.599999999999998" x2="256.7311201344746" y2="-21.599999999999998" stroke-width="1" stroke-dasharray="none" stroke="rgb(0, 0, 0)"/>
<line x1="268.13008917924606" y1="-10.400000000000002" x2="276.13008917924606" y2="-10.400000000000002" stroke-width="1" stroke-dasharray="none" stroke="rgb(0, 0, 0)"/>
<text x="262.43060465686034" y="-31.599999999999998" font-family="arial" font-size="14px" text-anchor="middle" fill="rgb(0, 0, 0)">32x32x32</text>
<line x1="376.13008917924606" y1="5.200000000000001" x2="376.13008917924606" y2="-10.799999999999999" stroke-width="1" stroke-dasharray="none" stroke="rgb(0, 0, 0)"/>
<line x1="384.13008917924606" y1="5.200000000000001" x2="384.13008917924606" y2="-10.799999999999999" stroke-width="1" stroke-dasharray="1" stroke="rgb(0, 0, 0)"/>
<line x1="385.8295737016318" y1="10.8" x2="385.8295737016318" y2="-5.200000000000001" stroke-width="1" stroke-dasharray="none" stroke="rgb(0, 0, 0)"/>
<line x1="393.8295737016318" y1="10.8" x2="393.8295737016318" y2="-5.200000000000001" stroke-width="1" stroke-dasharray="none" stroke="rgb(0, 0, 0)"/>
<line x1="376.13008917924606" y1="5.200000000000001" x2="385.8295737016318" y2="10.8" stroke-width="1" stroke-dasharray="none" stroke="rgb(0, 0, 0)"/>
<line x1="376.13008917924606" y1="-10.799999999999999" x2="385.8295737016318" y2="-5.200000000000001" stroke-width="1" stroke-dasharray="none" stroke="rgb(0, 0, 0)"/>
<line x1="384.13008917924606" y1="5.200000000000001" x2="393.8295737016318" y2="10.8" stroke-width="1" stroke-dasharray="1" stroke="rgb(0, 0, 0)"/>
<line x1="384.13008917924606" y1="-10.799999999999999" x2="393.8295737016318" y2="-5.200000000000001" stroke-width="1" stroke-dasharray="none" stroke="rgb(0, 0, 0)"/>
<line x1="376.13008917924606" y1="5.200000000000001" x2="384.13008917924606" y2="5.200000000000001" stroke-width="1" stroke-dasharray="1" stroke="rgb(0, 0, 0)"/>
<line x1="385.8295737016318" y1="10.8" x2="393.8295737016318" y2="10.8" stroke-width="1" stroke-dasharray="none" stroke="rgb(0, 0, 0)"/>
<line x1="376.13008917924606" y1="-10.799999999999999" x2="384.13008917924606" y2="-10.799999999999999" stroke-width="1" stroke-dasharray="none" stroke="rgb(0, 0, 0)"/>
<line x1="385.8295737016318" y1="-5.200000000000001" x2="393.8295737016318" y2="-5.200000000000001" stroke-width="1" stroke-dasharray="none" stroke="rgb(0, 0, 0)"/>
<text x="384.97983144043894" y="-20.799999999999997" font-family="arial" font-size="14px" text-anchor="middle" fill="rgb(0, 0, 0)">16x16x32</text>
<line x1="493.8295737016318" y1="5.200000000000001" x2="493.8295737016318" y2="-10.799999999999999" stroke-width="1" stroke-dasharray="none" stroke="rgb(0, 0, 0)"/>
<line x1="505.95530623371496" y1="5.200000000000001" x2="505.95530623371496" y2="-10.799999999999999" stroke-width="1" stroke-dasharray="1" stroke="rgb(0, 0, 0)"/>
<line x1="503.5290582240175" y1="10.8" x2="503.5290582240175" y2="-5.200000000000001" stroke-width="1" stroke-dasharray="none" stroke="rgb(0, 0, 0)"/>
<line x1="515.6547907561006" y1="10.8" x2="515.6547907561006" y2="-5.200000000000001" stroke-width="1" stroke-dasharray="none" stroke="rgb(0, 0, 0)"/>
<line x1="493.8295737016318" y1="5.200000000000001" x2="503.5290582240175" y2="10.8" stroke-width="1" stroke-dasharray="none" stroke="rgb(0, 0, 0)"/>
<line x1="493.8295737016318" y1="-10.799999999999999" x2="503.5290582240175" y2="-5.200000000000001" stroke-width="1" stroke-dasharray="none" stroke="rgb(0, 0, 0)"/>
<line x1="505.95530623371496" y1="5.200000000000001" x2="515.6547907561006" y2="10.8" stroke-width="1" stroke-dasharray="1" stroke="rgb(0, 0, 0)"/>
<line x1="505.95530623371496" y1="-10.799999999999999" x2="515.6547907561006" y2="-5.200000000000001" stroke-width="1" stroke-dasharray="none" stroke="rgb(0, 0, 0)"/>
<line x1="493.8295737016318" y1="5.200000000000001" x2="505.95530623371496" y2="5.200000000000001" stroke-width="1" stroke-dasharray="1" stroke="rgb(0, 0, 0)"/>
<line x1="503.5290582240175" y1="10.8" x2="515.6547907561006" y2="10.8" stroke-width="1" stroke-dasharray="none" stroke="rgb(0, 0, 0)"/>
<line x1="493.8295737016318" y1="-10.799999999999999" x2="505.95530623371496" y2="-10.799999999999999" stroke-width="1" stroke-dasharray="none" stroke="rgb(0, 0, 0)"/>
<line x1="503.5290582240175" y1="-5.200000000000001" x2="515.6547907561006" y2="-5.200000000000001" stroke-width="1" stroke-dasharray="none" stroke="rgb(0, 0, 0)"/>
<text x="504.7421822288662" y="-20.799999999999997" font-family="arial" font-size="14px" text-anchor="middle" fill="rgb(0, 0, 0)">16x16x64</text>
<line x1="615.6547907561006" y1="5.200000000000001" x2="615.6547907561006" y2="-10.799999999999999" stroke-width="1" stroke-dasharray="none" stroke="rgb(0, 0, 0)"/>
<line x1="627.7805232881838" y1="5.200000000000001" x2="627.7805232881838" y2="-10.799999999999999" stroke-width="1" stroke-dasharray="1" stroke="rgb(0, 0, 0)"/>
<line x1="625.3542752784863" y1="10.8" x2="625.3542752784863" y2="-5.200000000000001" stroke-width="1" stroke-dasharray="none" stroke="rgb(0, 0, 0)"/>
<line x1="637.4800078105695" y1="10.8" x2="637.4800078105695" y2="-5.200000000000001" stroke-width="1" stroke-dasharray="none" stroke="rgb(0, 0, 0)"/>
<line x1="615.6547907561006" y1="5.200000000000001" x2="625.3542752784863" y2="10.8" stroke-width="1" stroke-dasharray="none" stroke="rgb(0, 0, 0)"/>
<line x1="615.6547907561006" y1="-10.799999999999999" x2="625.3542752784863" y2="-5.200000000000001" stroke-width="1" stroke-dasharray="none" stroke="rgb(0, 0, 0)"/>
<line x1="627.7805232881838" y1="5.200000000000001" x2="637.4800078105695" y2="10.8" stroke-width="1" stroke-dasharray="1" stroke="rgb(0, 0, 0)"/>
<line x1="627.7805232881838" y1="-10.799999999999999" x2="637.4800078105695" y2="-5.200000000000001" stroke-width="1" stroke-dasharray="none" stroke="rgb(0, 0, 0)"/>
<line x1="615.6547907561006" y1="5.200000000000001" x2="627.7805232881838" y2="5.200000000000001" stroke-width="1" stroke-dasharray="1" stroke="rgb(0, 0, 0)"/>
<line x1="625.3542752784863" y1="10.8" x2="637.4800078105695" y2="10.8" stroke-width="1" stroke-dasharray="none" stroke="rgb(0, 0, 0)"/>
<line x1="615.6547907561006" y1="-10.799999999999999" x2="627.7805232881838" y2="-10.799999999999999" stroke-width="1" stroke-dasharray="none" stroke="rgb(0, 0, 0)"/>
<line x1="625.3542752784863" y1="-5.200000000000001" x2="637.4800078105695" y2="-5.200000000000001" stroke-width="1" stroke-dasharray="none" stroke="rgb(0, 0, 0)"/>
<text x="626.567399283335" y="-20.799999999999997" font-family="arial" font-size="14px" text-anchor="middle" fill="rgb(0, 0, 0)">16x16x64</text>
<line x1="737.4800078105694" y1="2.6000000000000005" x2="737.4800078105694" y2="-5.3999999999999995" stroke-width="1" stroke-dasharray="none" stroke="rgb(0, 0, 0)"/>
<line x1="749.6057403426526" y1="2.6000000000000005" x2="749.6057403426526" y2="-5.3999999999999995" stroke-width="1" stroke-dasharray="1" stroke="rgb(0, 0, 0)"/>
<line x1="742.3297500717623" y1="5.4" x2="742.3297500717623" y2="-2.6000000000000005" stroke-width="1" stroke-dasharray="none" stroke="rgb(0, 0, 0)"/>
<line x1="754.4554826038454" y1="5.4" x2="754.4554826038454" y2="-2.6000000000000005" stroke-width="1" stroke-dasharray="none" stroke="rgb(0, 0, 0)"/>
<line x1="737.4800078105694" y1="2.6000000000000005" x2="742.3297500717623" y2="5.4" stroke-width="1" stroke-dasharray="none" stroke="rgb(0, 0, 0)"/>
<line x1="737.4800078105694" y1="-5.3999999999999995" x2="742.3297500717623" y2="-2.6000000000000005" stroke-width="1" stroke-dasharray="none" stroke="rgb(0, 0, 0)"/>
<line x1="749.6057403426526" y1="2.6000000000000005" x2="754.4554826038454" y2="5.4" stroke-width="1" stroke-dasharray="1" stroke="rgb(0, 0, 0)"/>
<line x1="749.6057403426526" y1="-5.3999999999999995" x2="754.4554826038454" y2="-2.6000000000000005" stroke-width="1" stroke-dasharray="none" stroke="rgb(0, 0, 0)"/>
<line x1="737.4800078105694" y1="2.6000000000000005" x2="749.6057403426526" y2="2.6000000000000005" stroke-width="1" stroke-dasharray="1" stroke="rgb(0, 0, 0)"/>
<line x1="742.3297500717623" y1="5.4" x2="754.4554826038454" y2="5.4" stroke-width="1" stroke-dasharray="none" stroke="rgb(0, 0, 0)"/>
<line x1="737.4800078105694" y1="-5.3999999999999995" x2="749.6057403426526" y2="-5.3999999999999995" stroke-width="1" stroke-dasharray="none" stroke="rgb(0, 0, 0)"/>
<line x1="742.3297500717623" y1="-2.6000000000000005" x2="754.4554826038454" y2="-2.6000000000000005" stroke-width="1" stroke-dasharray="none" stroke="rgb(0, 0, 0)"/>
<text x="745.9677452072074" y="-15.399999999999999" font-family="arial" font-size="14px" text-anchor="middle" fill="rgb(0, 0, 0)">8x8x64</text>
<line x1="854.4554826038454" y1="2.6000000000000005" x2="854.4554826038454" y2="-5.3999999999999995" stroke-width="1" stroke-dasharray="none" stroke="rgb(0, 0, 0)"/>
<line x1="872.834656283798" y1="2.6000000000000005" x2="872.834656283798" y2="-5.3999999999999995" stroke-width="1" stroke-dasharray="1" stroke="rgb(0, 0, 0)"/>
<line x1="859.3052248650383" y1="5.4" x2="859.3052248650383" y2="-2.6000000000000005" stroke-width="1" stroke-dasharray="none" stroke="rgb(0, 0, 0)"/>
<line x1="877.6843985449908" y1="5.4" x2="877.6843985449908" y2="-2.6000000000000005" stroke-width="1" stroke-dasharray="none" stroke="rgb(0, 0, 0)"/>
<line x1="854.4554826038454" y1="2.6000000000000005" x2="859.3052248650383" y2="5.4" stroke-width="1" stroke-dasharray="none" stroke="rgb(0, 0, 0)"/>
<line x1="854.4554826038454" y1="-5.3999999999999995" x2="859.3052248650383" y2="-2.6000000000000005" stroke-width="1" stroke-dasharray="none" stroke="rgb(0, 0, 0)"/>
<line x1="872.834656283798" y1="2.6000000000000005" x2="877.6843985449908" y2="5.4" stroke-width="1" stroke-dasharray="1" stroke="rgb(0, 0, 0)"/>
<line x1="872.834656283798" y1="-5.3999999999999995" x2="877.6843985449908" y2="-2.6000000000000005" stroke-width="1" stroke-dasharray="none" stroke="rgb(0, 0, 0)"/>
<line x1="854.4554826038454" y1="2.6000000000000005" x2="872.834656283798" y2="2.6000000000000005" stroke-width="1" stroke-dasharray="1" stroke="rgb(0, 0, 0)"/>
<line x1="859.3052248650383" y1="5.4" x2="877.6843985449908" y2="5.4" stroke-width="1" stroke-dasharray="none" stroke="rgb(0, 0, 0)"/>
<line x1="854.4554826038454" y1="-5.3999999999999995" x2="872.834656283798" y2="-5.3999999999999995" stroke-width="1" stroke-dasharray="none" stroke="rgb(0, 0, 0)"/>
<line x1="859.3052248650383" y1="-2.6000000000000005" x2="877.6843985449908" y2="-2.6000000000000005" stroke-width="1" stroke-dasharray="none" stroke="rgb(0, 0, 0)"/>
<text x="866.0699405744182" y="-15.399999999999999" font-family="arial" font-size="14px" text-anchor="middle" fill="rgb(0, 0, 0)">8x8x128</text>
<line x1="977.6843985449909" y1="2.6000000000000005" x2="977.6843985449909" y2="-5.3999999999999995" stroke-width="1" stroke-dasharray="none" stroke="rgb(0, 0, 0)"/>
<line x1="996.0635722249435" y1="2.6000000000000005" x2="996.0635722249435" y2="-5.3999999999999995" stroke-width="1" stroke-dasharray="1" stroke="rgb(0, 0, 0)"/>
<line x1="982.5341408061838" y1="5.4" x2="982.5341408061838" y2="-2.6000000000000005" stroke-width="1" stroke-dasharray="none" stroke="rgb(0, 0, 0)"/>
<line x1="1000.9133144861363" y1="5.4" x2="1000.9133144861363" y2="-2.6000000000000005" stroke-width="1" stroke-dasharray="none" stroke="rgb(0, 0, 0)"/>
<line x1="977.6843985449909" y1="2.6000000000000005" x2="982.5341408061838" y2="5.4" stroke-width="1" stroke-dasharray="none" stroke="rgb(0, 0, 0)"/>
<line x1="977.6843985449909" y1="-5.3999999999999995" x2="982.5341408061838" y2="-2.6000000000000005" stroke-width="1" stroke-dasharray="none" stroke="rgb(0, 0, 0)"/>
<line x1="996.0635722249435" y1="2.6000000000000005" x2="1000.9133144861363" y2="5.4" stroke-width="1" stroke-dasharray="1" stroke="rgb(0, 0, 0)"/>
<line x1="996.0635722249435" y1="-5.3999999999999995" x2="1000.9133144861363" y2="-2.6000000000000005" stroke-width="1" stroke-dasharray="none" stroke="rgb(0, 0, 0)"/>
<line x1="977.6843985449909" y1="2.6000000000000005" x2="996.0635722249435" y2="2.6000000000000005" stroke-width="1" stroke-dasharray="1" stroke="rgb(0, 0, 0)"/>
<line x1="982.5341408061838" y1="5.4" x2="1000.9133144861363" y2="5.4" stroke-width="1" stroke-dasharray="none" stroke="rgb(0, 0, 0)"/>
<line x1="977.6843985449909" y1="-5.3999999999999995" x2="996.0635722249435" y2="-5.3999999999999995" stroke-width="1" stroke-dasharray="none" stroke="rgb(0, 0, 0)"/>
<line x1="982.5341408061838" y1="-2.6000000000000005" x2="1000.9133144861363" y2="-2.6000000000000005" stroke-width="1" stroke-dasharray="none" stroke="rgb(0, 0, 0)"/>
<text x="989.2988565155637" y="-15.399999999999999" font-family="arial" font-size="14px" text-anchor="middle" fill="rgb(0, 0, 0)">8x8x128</text>
<line x1="1100.9133144861364" y1="1.3000000000000003" x2="1100.9133144861364" y2="-2.6999999999999997" stroke-width="1" stroke-dasharray="none" stroke="rgb(0, 0, 0)"/>
<line x1="1119.292488166089" y1="1.3000000000000003" x2="1119.292488166089" y2="-2.6999999999999997" stroke-width="1" stroke-dasharray="1" stroke="rgb(0, 0, 0)"/>
<line x1="1103.3381856167327" y1="2.7" x2="1103.3381856167327" y2="-1.3000000000000003" stroke-width="1" stroke-dasharray="none" stroke="rgb(0, 0, 0)"/>
<line x1="1121.7173592966853" y1="2.7" x2="1121.7173592966853" y2="-1.3000000000000003" stroke-width="1" stroke-dasharray="none" stroke="rgb(0, 0, 0)"/>
<line x1="1100.9133144861364" y1="1.3000000000000003" x2="1103.3381856167327" y2="2.7" stroke-width="1" stroke-dasharray="none" stroke="rgb(0, 0, 0)"/>
<line x1="1100.9133144861364" y1="-2.6999999999999997" x2="1103.3381856167327" y2="-1.3000000000000003" stroke-width="1" stroke-dasharray="none" stroke="rgb(0, 0, 0)"/>
<line x1="1119.292488166089" y1="1.3000000000000003" x2="1121.7173592966853" y2="2.7" stroke-width="1" stroke-dasharray="1" stroke="rgb(0, 0, 0)"/>
<line x1="1119.292488166089" y1="-2.6999999999999997" x2="1121.7173592966853" y2="-1.3000000000000003" stroke-width="1" stroke-dasharray="none" stroke="rgb(0, 0, 0)"/>
<line x1="1100.9133144861364" y1="1.3000000000000003" x2="1119.292488166089" y2="1.3000000000000003" stroke-width="1" stroke-dasharray="1" stroke="rgb(0, 0, 0)"/>
<line x1="1103.3381856167327" y1="2.7" x2="1121.7173592966853" y2="2.7" stroke-width="1" stroke-dasharray="none" stroke="rgb(0, 0, 0)"/>
<line x1="1100.9133144861364" y1="-2.6999999999999997" x2="1119.292488166089" y2="-2.6999999999999997" stroke-width="1" stroke-dasharray="none" stroke="rgb(0, 0, 0)"/>
<line x1="1103.3381856167327" y1="-1.3000000000000003" x2="1121.7173592966853" y2="-1.3000000000000003" stroke-width="1" stroke-dasharray="none" stroke="rgb(0, 0, 0)"/>
<text x="1111.3153368914109" y="-12.7" font-family="arial" font-size="14px" text-anchor="middle" fill="rgb(0, 0, 0)">4x4x128</text>
<line x1="1221.7173592966853" y1="-48.50293012833273" x2="1221.7173592966853" y2="48.50293012833273" stroke-width="1" stroke-dasharray="none" stroke="rgb(0, 0, 0)"/>
<line x1="1221.7173592966853" y1="48.50293012833273" x2="1225.7173592966853" y2="48.50293012833273" stroke-width="1" stroke-dasharray="none" stroke="rgb(0, 0, 0)"/>
<line x1="1225.7173592966853" y1="48.50293012833273" x2="1225.7173592966853" y2="-48.50293012833273" stroke-width="1" stroke-dasharray="none" stroke="rgb(0, 0, 0)"/>
<line x1="1225.7173592966853" y1="-48.50293012833273" x2="1221.7173592966853" y2="-48.50293012833273" stroke-width="1" stroke-dasharray="none" stroke="rgb(0, 0, 0)"/>
<text x="1223.7173592966853" y="-58.50293012833273" font-family="arial" font-size="14px" text-anchor="middle" fill="rgb(0, 0, 0)">2048</text>
<line x1="1325.7173592966853" y1="-13.928809012737984" x2="1325.7173592966853" y2="13.928809012737984" stroke-width="1" stroke-dasharray="none" stroke="rgb(0, 0, 0)"/>
<line x1="1325.7173592966853" y1="13.928809012737984" x2="1329.7173592966853" y2="13.928809012737984" stroke-width="1" stroke-dasharray="none" stroke="rgb(0, 0, 0)"/>
<line x1="1329.7173592966853" y1="13.928809012737984" x2="1329.7173592966853" y2="-13.928809012737984" stroke-width="1" stroke-dasharray="none" stroke="rgb(0, 0, 0)"/>
<line x1="1329.7173592966853" y1="-13.928809012737984" x2="1325.7173592966853" y2="-13.928809012737984" stroke-width="1" stroke-dasharray="none" stroke="rgb(0, 0, 0)"/>
<text x="1327.7173592966853" y="-23.928809012737986" font-family="arial" font-size="14px" text-anchor="middle" fill="rgb(0, 0, 0)">256</text>
<line x1="1429.7173592966853" y1="-1.9905358527674861" x2="1429.7173592966853" y2="1.9905358527674861" stroke-width="1" stroke-dasharray="none" stroke="rgb(0, 0, 0)"/>
<line x1="1429.7173592966853" y1="1.9905358527674861" x2="1433.7173592966853" y2="1.9905358527674861" stroke-width="1" stroke-dasharray="none" stroke="rgb(0, 0, 0)"/>
<line x1="1433.7173592966853" y1="1.9905358527674861" x2="1433.7173592966853" y2="-1.9905358527674861" stroke-width="1" stroke-dasharray="none" stroke="rgb(0, 0, 0)"/>
<line x1="1433.7173592966853" y1="-1.9905358527674861" x2="1429.7173592966853" y2="-1.9905358527674861" stroke-width="1" stroke-dasharray="none" stroke="rgb(0, 0, 0)"/>
<text x="1431.7173592966853" y="-11.990535852767486" font-family="arial" font-size="14px" text-anchor="middle" fill="rgb(0, 0, 0)">10</text>
<line x1="9.699484522385713" y1="0.9750000000000002" x2="9.699484522385713" y2="-2.025" stroke-width="1" stroke-dasharray="none" stroke="rgb(0, 0, 0)"/>
<line x1="11.632666567317475" y1="0.9750000000000002" x2="11.632666567317475" y2="-2.025" stroke-width="1" stroke-dasharray="1" stroke="rgb(0, 0, 0)"/>
<line x1="11.518137870333035" y1="2.025" x2="11.518137870333035" y2="-0.9750000000000002" stroke-width="1" stroke-dasharray="none" stroke="rgb(0, 0, 0)"/>
<line x1="13.451319915264797" y1="2.025" x2="13.451319915264797" y2="-0.9750000000000002" stroke-width="1" stroke-dasharray="none" stroke="rgb(0, 0, 0)"/>
<line x1="9.699484522385713" y1="0.9750000000000002" x2="11.518137870333035" y2="2.025" stroke-width="1" stroke-dasharray="none" stroke="rgb(0, 0, 0)"/>
<line x1="9.699484522385713" y1="-2.025" x2="11.518137870333035" y2="-0.9750000000000002" stroke-width="1" stroke-dasharray="none" stroke="rgb(0, 0, 0)"/>
<line x1="11.632666567317475" y1="0.9750000000000002" x2="13.451319915264797" y2="2.025" stroke-width="1" stroke-dasharray="1" stroke="rgb(0, 0, 0)"/>
<line x1="11.632666567317475" y1="-2.025" x2="13.451319915264797" y2="-0.9750000000000002" stroke-width="1" stroke-dasharray="none" stroke="rgb(0, 0, 0)"/>
<line x1="9.699484522385713" y1="0.9750000000000002" x2="11.632666567317475" y2="0.9750000000000002" stroke-width="1" stroke-dasharray="1" stroke="rgb(0, 0, 0)"/>
<line x1="11.518137870333035" y1="2.025" x2="13.451319915264797" y2="2.025" stroke-width="1" stroke-dasharray="none" stroke="rgb(0, 0, 0)"/>
<line x1="9.699484522385713" y1="-2.025" x2="11.632666567317475" y2="-2.025" stroke-width="1" stroke-dasharray="none" stroke="rgb(0, 0, 0)"/>
<line x1="11.518137870333035" y1="-0.9750000000000002" x2="13.451319915264797" y2="-0.9750000000000002" stroke-width="1" stroke-dasharray="none" stroke="rgb(0, 0, 0)"/>
<line x1="11.632666567317475" y1="-2.025" x2="126.18189335089605" y2="-10.799999999999999" stroke-width="1" stroke-dasharray="none" stroke="rgb(0, 0, 0)"/>
<line x1="13.451319915264797" y1="2.025" x2="126.18189335089605" y2="-10.799999999999999" stroke-width="1" stroke-dasharray="none" stroke="rgb(0, 0, 0)"/>
<text x="71.33215108970319" y="45.599999999999994" font-family="arial" font-size="14px" text-anchor="middle" fill="rgb(0, 0, 0)">conv3x3, 32</text>
<text x="71.33215108970319" y="59.599999999999994" font-family="arial" font-size="14px" text-anchor="middle" fill="rgb(0, 0, 0)">stride (1, 1)</text>
<line x1="131.0316356120889" y1="0.9750000000000002" x2="131.0316356120889" y2="-2.025" stroke-width="1" stroke-dasharray="none" stroke="rgb(0, 0, 0)"/>
<line x1="139.0316356120889" y1="0.9750000000000002" x2="139.0316356120889" y2="-2.025" stroke-width="1" stroke-dasharray="1" stroke="rgb(0, 0, 0)"/>
<line x1="132.85028896003624" y1="2.025" x2="132.85028896003624" y2="-0.9750000000000002" stroke-width="1" stroke-dasharray="none" stroke="rgb(0, 0, 0)"/>
<line x1="140.85028896003624" y1="2.025" x2="140.85028896003624" y2="-0.9750000000000002" stroke-width="1" stroke-dasharray="none" stroke="rgb(0, 0, 0)"/>
<line x1="131.0316356120889" y1="0.9750000000000002" x2="132.85028896003624" y2="2.025" stroke-width="1" stroke-dasharray="none" stroke="rgb(0, 0, 0)"/>
<line x1="131.0316356120889" y1="-2.025" x2="132.85028896003624" y2="-0.9750000000000002" stroke-width="1" stroke-dasharray="none" stroke="rgb(0, 0, 0)"/>
<line x1="139.0316356120889" y1="0.9750000000000002" x2="140.85028896003624" y2="2.025" stroke-width="1" stroke-dasharray="1" stroke="rgb(0, 0, 0)"/>
<line x1="139.0316356120889" y1="-2.025" x2="140.85028896003624" y2="-0.9750000000000002" stroke-width="1" stroke-dasharray="none" stroke="rgb(0, 0, 0)"/>
<line x1="131.0316356120889" y1="0.9750000000000002" x2="139.0316356120889" y2="0.9750000000000002" stroke-width="1" stroke-dasharray="1" stroke="rgb(0, 0, 0)"/>
<line x1="132.85028896003624" y1="2.025" x2="140.85028896003624" y2="2.025" stroke-width="1" stroke-dasharray="none" stroke="rgb(0, 0, 0)"/>
<line x1="131.0316356120889" y1="-2.025" x2="139.0316356120889" y2="-2.025" stroke-width="1" stroke-dasharray="none" stroke="rgb(0, 0, 0)"/>
<line x1="132.85028896003624" y1="-0.9750000000000002" x2="140.85028896003624" y2="-0.9750000000000002" stroke-width="1" stroke-dasharray="none" stroke="rgb(0, 0, 0)"/>
<line x1="139.0316356120889" y1="-2.025" x2="253.58086239566748" y2="-10.799999999999999" stroke-width="1" stroke-dasharray="none" stroke="rgb(0, 0, 0)"/>
<line x1="140.85028896003624" y1="2.025" x2="253.58086239566748" y2="-10.799999999999999" stroke-width="1" stroke-dasharray="none" stroke="rgb(0, 0, 0)"/>
<text x="198.73112013447462" y="45.599999999999994" font-family="arial" font-size="14px" text-anchor="middle" fill="rgb(0, 0, 0)">conv3x3, 32</text>
<text x="198.73112013447462" y="59.599999999999994" font-family="arial" font-size="14px" text-anchor="middle" fill="rgb(0, 0, 0)">stride (1, 1)</text>
<line x1="258.43060465686034" y1="0.6500000000000001" x2="258.43060465686034" y2="-1.3499999999999999" stroke-width="1" stroke-dasharray="none" stroke="rgb(0, 0, 0)"/>
<line x1="266.43060465686034" y1="0.6500000000000001" x2="266.43060465686034" y2="-1.3499999999999999" stroke-width="1" stroke-dasharray="1" stroke="rgb(0, 0, 0)"/>
<line x1="259.64304022215856" y1="1.35" x2="259.64304022215856" y2="-0.6500000000000001" stroke-width="1" stroke-dasharray="none" stroke="rgb(0, 0, 0)"/>
<line x1="267.64304022215856" y1="1.35" x2="267.64304022215856" y2="-0.6500000000000001" stroke-width="1" stroke-dasharray="none" stroke="rgb(0, 0, 0)"/>
<line x1="258.43060465686034" y1="0.6500000000000001" x2="259.64304022215856" y2="1.35" stroke-width="1" stroke-dasharray="none" stroke="rgb(0, 0, 0)"/>
<line x1="258.43060465686034" y1="-1.3499999999999999" x2="259.64304022215856" y2="-0.6500000000000001" stroke-width="1" stroke-dasharray="none" stroke="rgb(0, 0, 0)"/>
<line x1="266.43060465686034" y1="0.6500000000000001" x2="267.64304022215856" y2="1.35" stroke-width="1" stroke-dasharray="1" stroke="rgb(0, 0, 0)"/>
<line x1="266.43060465686034" y1="-1.3499999999999999" x2="267.64304022215856" y2="-0.6500000000000001" stroke-width="1" stroke-dasharray="none" stroke="rgb(0, 0, 0)"/>
<line x1="258.43060465686034" y1="0.6500000000000001" x2="266.43060465686034" y2="0.6500000000000001" stroke-width="1" stroke-dasharray="1" stroke="rgb(0, 0, 0)"/>
<line x1="259.64304022215856" y1="1.35" x2="267.64304022215856" y2="1.35" stroke-width="1" stroke-dasharray="none" stroke="rgb(0, 0, 0)"/>
<line x1="258.43060465686034" y1="-1.3499999999999999" x2="266.43060465686034" y2="-1.3499999999999999" stroke-width="1" stroke-dasharray="none" stroke="rgb(0, 0, 0)"/>
<line x1="259.64304022215856" y1="-0.6500000000000001" x2="267.64304022215856" y2="-0.6500000000000001" stroke-width="1" stroke-dasharray="none" stroke="rgb(0, 0, 0)"/>
<line x1="266.43060465686034" y1="-1.35" x2="378.5549603098425" y2="-5.3999999999999995" stroke-width="1" stroke-dasharray="none" stroke="rgb(0, 0, 0)"/>
<line x1="267.64304022215856" y1="1.3499999999999999" x2="378.5549603098425" y2="-5.3999999999999995" stroke-width="1" stroke-dasharray="none" stroke="rgb(0, 0, 0)"/>
<text x="326.13008917924606" y="45.599999999999994" font-family="arial" font-size="14px" text-anchor="middle" fill="rgb(0, 0, 0)">maxpool2x2</text>
<text x="326.13008917924606" y="59.599999999999994" font-family="arial" font-size="14px" text-anchor="middle" fill="rgb(0, 0, 0)">stride (2, 2)</text>
<line x1="380.9798314404389" y1="0.9750000000000002" x2="380.9798314404389" y2="-2.025" stroke-width="1" stroke-dasharray="none" stroke="rgb(0, 0, 0)"/>
<line x1="388.9798314404389" y1="0.9750000000000002" x2="388.9798314404389" y2="-2.025" stroke-width="1" stroke-dasharray="1" stroke="rgb(0, 0, 0)"/>
<line x1="382.7984847883862" y1="2.025" x2="382.7984847883862" y2="-0.9750000000000002" stroke-width="1" stroke-dasharray="none" stroke="rgb(0, 0, 0)"/>
<line x1="390.7984847883862" y1="2.025" x2="390.7984847883862" y2="-0.9750000000000002" stroke-width="1" stroke-dasharray="none" stroke="rgb(0, 0, 0)"/>
<line x1="380.9798314404389" y1="0.9750000000000002" x2="382.7984847883862" y2="2.025" stroke-width="1" stroke-dasharray="none" stroke="rgb(0, 0, 0)"/>
<line x1="380.9798314404389" y1="-2.025" x2="382.7984847883862" y2="-0.9750000000000002" stroke-width="1" stroke-dasharray="none" stroke="rgb(0, 0, 0)"/>
<line x1="388.9798314404389" y1="0.9750000000000002" x2="390.7984847883862" y2="2.025" stroke-width="1" stroke-dasharray="1" stroke="rgb(0, 0, 0)"/>
<line x1="388.9798314404389" y1="-2.025" x2="390.7984847883862" y2="-0.9750000000000002" stroke-width="1" stroke-dasharray="none" stroke="rgb(0, 0, 0)"/>
<line x1="380.9798314404389" y1="0.9750000000000002" x2="388.9798314404389" y2="0.9750000000000002" stroke-width="1" stroke-dasharray="1" stroke="rgb(0, 0, 0)"/>
<line x1="382.7984847883862" y1="2.025" x2="390.7984847883862" y2="2.025" stroke-width="1" stroke-dasharray="none" stroke="rgb(0, 0, 0)"/>
<line x1="380.9798314404389" y1="-2.025" x2="388.9798314404389" y2="-2.025" stroke-width="1" stroke-dasharray="none" stroke="rgb(0, 0, 0)"/>
<line x1="382.7984847883862" y1="-0.9750000000000002" x2="390.7984847883862" y2="-0.9750000000000002" stroke-width="1" stroke-dasharray="none" stroke="rgb(0, 0, 0)"/>
<line x1="388.9798314404389" y1="-2.025" x2="496.2544448322282" y2="-5.3999999999999995" stroke-width="1" stroke-dasharray="none" stroke="rgb(0, 0, 0)"/>
<line x1="390.7984847883862" y1="2.025" x2="496.2544448322282" y2="-5.3999999999999995" stroke-width="1" stroke-dasharray="none" stroke="rgb(0, 0, 0)"/>
<text x="443.8295737016318" y="34.8" font-family="arial" font-size="14px" text-anchor="middle" fill="rgb(0, 0, 0)">conv3x3, 64</text>
<text x="443.8295737016318" y="48.8" font-family="arial" font-size="14px" text-anchor="middle" fill="rgb(0, 0, 0)">stride (1, 1)</text>
<line x1="498.6793159628246" y1="0.9750000000000002" x2="498.6793159628246" y2="-2.025" stroke-width="1" stroke-dasharray="none" stroke="rgb(0, 0, 0)"/>
<line x1="510.8050484949078" y1="0.9750000000000002" x2="510.8050484949078" y2="-2.025" stroke-width="1" stroke-dasharray="1" stroke="rgb(0, 0, 0)"/>
<line x1="500.4979693107719" y1="2.025" x2="500.4979693107719" y2="-0.9750000000000002" stroke-width="1" stroke-dasharray="none" stroke="rgb(0, 0, 0)"/>
<line x1="512.6237018428551" y1="2.025" x2="512.6237018428551" y2="-0.9750000000000002" stroke-width="1" stroke-dasharray="none" stroke="rgb(0, 0, 0)"/>
<line x1="498.6793159628246" y1="0.9750000000000002" x2="500.4979693107719" y2="2.025" stroke-width="1" stroke-dasharray="none" stroke="rgb(0, 0, 0)"/>
<line x1="498.6793159628246" y1="-2.025" x2="500.4979693107719" y2="-0.9750000000000002" stroke-width="1" stroke-dasharray="none" stroke="rgb(0, 0, 0)"/>
<line x1="510.8050484949078" y1="0.9750000000000002" x2="512.6237018428551" y2="2.025" stroke-width="1" stroke-dasharray="1" stroke="rgb(0, 0, 0)"/>
<line x1="510.8050484949078" y1="-2.025" x2="512.6237018428551" y2="-0.9750000000000002" stroke-width="1" stroke-dasharray="none" stroke="rgb(0, 0, 0)"/>
<line x1="498.6793159628246" y1="0.9750000000000002" x2="510.8050484949078" y2="0.9750000000000002" stroke-width="1" stroke-dasharray="1" stroke="rgb(0, 0, 0)"/>
<line x1="500.4979693107719" y1="2.025" x2="512.6237018428551" y2="2.025" stroke-width="1" stroke-dasharray="none" stroke="rgb(0, 0, 0)"/>
<line x1="498.6793159628246" y1="-2.025" x2="510.8050484949078" y2="-2.025" stroke-width="1" stroke-dasharray="none" stroke="rgb(0, 0, 0)"/>
<line x1="500.4979693107719" y1="-0.9750000000000002" x2="512.6237018428551" y2="-0.9750000000000002" stroke-width="1" stroke-dasharray="none" stroke="rgb(0, 0, 0)"/>
<line x1="510.8050484949078" y1="-2.025" x2="618.0796618866971" y2="-5.3999999999999995" stroke-width="1" stroke-dasharray="none" stroke="rgb(0, 0, 0)"/>
<line x1="512.6237018428551" y1="2.025" x2="618.0796618866971" y2="-5.3999999999999995" stroke-width="1" stroke-dasharray="none" stroke="rgb(0, 0, 0)"/>
<text x="565.6547907561006" y="34.8" font-family="arial" font-size="14px" text-anchor="middle" fill="rgb(0, 0, 0)">conv3x3, 64</text>
<text x="565.6547907561006" y="48.8" font-family="arial" font-size="14px" text-anchor="middle" fill="rgb(0, 0, 0)">stride (1, 1)</text>
<line x1="620.5045330172935" y1="0.6500000000000001" x2="620.5045330172935" y2="-1.3499999999999999" stroke-width="1" stroke-dasharray="none" stroke="rgb(0, 0, 0)"/>
<line x1="632.6302655493766" y1="0.6500000000000001" x2="632.6302655493766" y2="-1.3499999999999999" stroke-width="1" stroke-dasharray="1" stroke="rgb(0, 0, 0)"/>
<line x1="621.7169685825917" y1="1.35" x2="621.7169685825917" y2="-0.6500000000000001" stroke-width="1" stroke-dasharray="none" stroke="rgb(0, 0, 0)"/>
<line x1="633.8427011146749" y1="1.35" x2="633.8427011146749" y2="-0.6500000000000001" stroke-width="1" stroke-dasharray="none" stroke="rgb(0, 0, 0)"/>
<line x1="620.5045330172935" y1="0.6500000000000001" x2="621.7169685825917" y2="1.35" stroke-width="1" stroke-dasharray="none" stroke="rgb(0, 0, 0)"/>
<line x1="620.5045330172935" y1="-1.3499999999999999" x2="621.7169685825917" y2="-0.6500000000000001" stroke-width="1" stroke-dasharray="none" stroke="rgb(0, 0, 0)"/>
<line x1="632.6302655493766" y1="0.6500000000000001" x2="633.8427011146749" y2="1.35" stroke-width="1" stroke-dasharray="1" stroke="rgb(0, 0, 0)"/>
<line x1="632.6302655493766" y1="-1.3499999999999999" x2="633.8427011146749" y2="-0.6500000000000001" stroke-width="1" stroke-dasharray="none" stroke="rgb(0, 0, 0)"/>
<line x1="620.5045330172935" y1="0.6500000000000001" x2="632.6302655493766" y2="0.6500000000000001" stroke-width="1" stroke-dasharray="1" stroke="rgb(0, 0, 0)"/>
<line x1="621.7169685825917" y1="1.35" x2="633.8427011146749" y2="1.35" stroke-width="1" stroke-dasharray="none" stroke="rgb(0, 0, 0)"/>
<line x1="620.5045330172935" y1="-1.3499999999999999" x2="632.6302655493766" y2="-1.3499999999999999" stroke-width="1" stroke-dasharray="none" stroke="rgb(0, 0, 0)"/>
<line x1="621.7169685825917" y1="-0.6500000000000001" x2="633.8427011146749" y2="-0.6500000000000001" stroke-width="1" stroke-dasharray="none" stroke="rgb(0, 0, 0)"/>
<line x1="632.6302655493766" y1="-1.35" x2="738.6924433758676" y2="-2.6999999999999997" stroke-width="1" stroke-dasharray="none" stroke="rgb(0, 0, 0)"/>
<line x1="633.8427011146748" y1="1.3499999999999999" x2="738.6924433758676" y2="-2.6999999999999997" stroke-width="1" stroke-dasharray="none" stroke="rgb(0, 0, 0)"/>
<text x="687.4800078105694" y="34.8" font-family="arial" font-size="14px" text-anchor="middle" fill="rgb(0, 0, 0)">maxpool2x2</text>
<text x="687.4800078105694" y="48.8" font-family="arial" font-size="14px" text-anchor="middle" fill="rgb(0, 0, 0)">stride (2, 2)</text>
<line x1="739.9048789411659" y1="0.9750000000000002" x2="739.9048789411659" y2="-2.025" stroke-width="1" stroke-dasharray="none" stroke="rgb(0, 0, 0)"/>
<line x1="752.030611473249" y1="0.9750000000000002" x2="752.030611473249" y2="-2.025" stroke-width="1" stroke-dasharray="1" stroke="rgb(0, 0, 0)"/>
<line x1="741.7235322891132" y1="2.025" x2="741.7235322891132" y2="-0.9750000000000002" stroke-width="1" stroke-dasharray="none" stroke="rgb(0, 0, 0)"/>
<line x1="753.8492648211964" y1="2.025" x2="753.8492648211964" y2="-0.9750000000000002" stroke-width="1" stroke-dasharray="none" stroke="rgb(0, 0, 0)"/>
<line x1="739.9048789411659" y1="0.9750000000000002" x2="741.7235322891132" y2="2.025" stroke-width="1" stroke-dasharray="none" stroke="rgb(0, 0, 0)"/>
<line x1="739.9048789411659" y1="-2.025" x2="741.7235322891132" y2="-0.9750000000000002" stroke-width="1" stroke-dasharray="none" stroke="rgb(0, 0, 0)"/>
<line x1="752.030611473249" y1="0.9750000000000002" x2="753.8492648211964" y2="2.025" stroke-width="1" stroke-dasharray="1" stroke="rgb(0, 0, 0)"/>
<line x1="752.030611473249" y1="-2.025" x2="753.8492648211964" y2="-0.9750000000000002" stroke-width="1" stroke-dasharray="none" stroke="rgb(0, 0, 0)"/>
<line x1="739.9048789411659" y1="0.9750000000000002" x2="752.030611473249" y2="0.9750000000000002" stroke-width="1" stroke-dasharray="1" stroke="rgb(0, 0, 0)"/>
<line x1="741.7235322891132" y1="2.025" x2="753.8492648211964" y2="2.025" stroke-width="1" stroke-dasharray="none" stroke="rgb(0, 0, 0)"/>
<line x1="739.9048789411659" y1="-2.025" x2="752.030611473249" y2="-2.025" stroke-width="1" stroke-dasharray="none" stroke="rgb(0, 0, 0)"/>
<line x1="741.7235322891132" y1="-0.9750000000000002" x2="753.8492648211964" y2="-0.9750000000000002" stroke-width="1" stroke-dasharray="none" stroke="rgb(0, 0, 0)"/>
<line x1="752.030611473249" y1="-2.025" x2="855.6679181691436" y2="-2.6999999999999997" stroke-width="1" stroke-dasharray="none" stroke="rgb(0, 0, 0)"/>
<line x1="753.8492648211964" y1="2.025" x2="855.6679181691436" y2="-2.6999999999999997" stroke-width="1" stroke-dasharray="none" stroke="rgb(0, 0, 0)"/>
<text x="804.4554826038454" y="29.4" font-family="arial" font-size="14px" text-anchor="middle" fill="rgb(0, 0, 0)">conv3x3, 128</text>
<text x="804.4554826038454" y="43.4" font-family="arial" font-size="14px" text-anchor="middle" fill="rgb(0, 0, 0)">stride (1, 1)</text>
<line x1="856.8803537344419" y1="0.9750000000000002" x2="856.8803537344419" y2="-2.025" stroke-width="1" stroke-dasharray="none" stroke="rgb(0, 0, 0)"/>
<line x1="875.2595274143945" y1="0.9750000000000002" x2="875.2595274143945" y2="-2.025" stroke-width="1" stroke-dasharray="1" stroke="rgb(0, 0, 0)"/>
<line x1="858.6990070823892" y1="2.025" x2="858.6990070823892" y2="-0.9750000000000002" stroke-width="1" stroke-dasharray="none" stroke="rgb(0, 0, 0)"/>
<line x1="877.0781807623417" y1="2.025" x2="877.0781807623417" y2="-0.9750000000000002" stroke-width="1" stroke-dasharray="none" stroke="rgb(0, 0, 0)"/>
<line x1="856.8803537344419" y1="0.9750000000000002" x2="858.6990070823892" y2="2.025" stroke-width="1" stroke-dasharray="none" stroke="rgb(0, 0, 0)"/>
<line x1="856.8803537344419" y1="-2.025" x2="858.6990070823892" y2="-0.9750000000000002" stroke-width="1" stroke-dasharray="none" stroke="rgb(0, 0, 0)"/>
<line x1="875.2595274143945" y1="0.9750000000000002" x2="877.0781807623417" y2="2.025" stroke-width="1" stroke-dasharray="1" stroke="rgb(0, 0, 0)"/>
<line x1="875.2595274143945" y1="-2.025" x2="877.0781807623417" y2="-0.9750000000000002" stroke-width="1" stroke-dasharray="none" stroke="rgb(0, 0, 0)"/>
<line x1="856.8803537344419" y1="0.9750000000000002" x2="875.2595274143945" y2="0.9750000000000002" stroke-width="1" stroke-dasharray="1" stroke="rgb(0, 0, 0)"/>
<line x1="858.6990070823892" y1="2.025" x2="877.0781807623417" y2="2.025" stroke-width="1" stroke-dasharray="none" stroke="rgb(0, 0, 0)"/>
<line x1="856.8803537344419" y1="-2.025" x2="875.2595274143945" y2="-2.025" stroke-width="1" stroke-dasharray="none" stroke="rgb(0, 0, 0)"/>
<line x1="858.6990070823892" y1="-0.9750000000000002" x2="877.0781807623417" y2="-0.9750000000000002" stroke-width="1" stroke-dasharray="none" stroke="rgb(0, 0, 0)"/>
<line x1="875.2595274143945" y1="-2.025" x2="978.8968341102891" y2="-2.6999999999999997" stroke-width="1" stroke-dasharray="none" stroke="rgb(0, 0, 0)"/>
<line x1="877.0781807623418" y1="2.025" x2="978.8968341102891" y2="-2.6999999999999997" stroke-width="1" stroke-dasharray="none" stroke="rgb(0, 0, 0)"/>
<text x="927.6843985449909" y="29.4" font-family="arial" font-size="14px" text-anchor="middle" fill="rgb(0, 0, 0)">conv3x3, 128</text>
<text x="927.6843985449909" y="43.4" font-family="arial" font-size="14px" text-anchor="middle" fill="rgb(0, 0, 0)">stride (1, 1)</text>
<line x1="980.1092696755874" y1="0.6500000000000001" x2="980.1092696755874" y2="-1.3499999999999999" stroke-width="1" stroke-dasharray="none" stroke="rgb(0, 0, 0)"/>
<line x1="998.48844335554" y1="0.6500000000000001" x2="998.48844335554" y2="-1.3499999999999999" stroke-width="1" stroke-dasharray="1" stroke="rgb(0, 0, 0)"/>
<line x1="981.3217052408855" y1="1.35" x2="981.3217052408855" y2="-0.6500000000000001" stroke-width="1" stroke-dasharray="none" stroke="rgb(0, 0, 0)"/>
<line x1="999.7008789208381" y1="1.35" x2="999.7008789208381" y2="-0.6500000000000001" stroke-width="1" stroke-dasharray="none" stroke="rgb(0, 0, 0)"/>
<line x1="980.1092696755874" y1="0.6500000000000001" x2="981.3217052408855" y2="1.35" stroke-width="1" stroke-dasharray="none" stroke="rgb(0, 0, 0)"/>
<line x1="980.1092696755874" y1="-1.3499999999999999" x2="981.3217052408855" y2="-0.6500000000000001" stroke-width="1" stroke-dasharray="none" stroke="rgb(0, 0, 0)"/>
<line x1="998.48844335554" y1="0.6500000000000001" x2="999.7008789208381" y2="1.35" stroke-width="1" stroke-dasharray="1" stroke="rgb(0, 0, 0)"/>
<line x1="998.48844335554" y1="-1.3499999999999999" x2="999.7008789208381" y2="-0.6500000000000001" stroke-width="1" stroke-dasharray="none" stroke="rgb(0, 0, 0)"/>
<line x1="980.1092696755874" y1="0.6500000000000001" x2="998.48844335554" y2="0.6500000000000001" stroke-width="1" stroke-dasharray="1" stroke="rgb(0, 0, 0)"/>
<line x1="981.3217052408855" y1="1.35" x2="999.7008789208381" y2="1.35" stroke-width="1" stroke-dasharray="none" stroke="rgb(0, 0, 0)"/>
<line x1="980.1092696755874" y1="-1.3499999999999999" x2="998.48844335554" y2="-1.3499999999999999" stroke-width="1" stroke-dasharray="none" stroke="rgb(0, 0, 0)"/>
<line x1="981.3217052408855" y1="-0.6500000000000001" x2="999.7008789208381" y2="-0.6500000000000001" stroke-width="1" stroke-dasharray="none" stroke="rgb(0, 0, 0)"/>
<line x1="998.48844335554" y1="-1.35" x2="1101.5195322687855" y2="-1.3499999999999999" stroke-width="1" stroke-dasharray="none" stroke="rgb(0, 0, 0)"/>
<line x1="999.7008789208381" y1="1.3499999999999999" x2="1101.5195322687855" y2="-1.3499999999999999" stroke-width="1" stroke-dasharray="none" stroke="rgb(0, 0, 0)"/>
<text x="1050.9133144861364" y="29.4" font-family="arial" font-size="14px" text-anchor="middle" fill="rgb(0, 0, 0)">maxpool2x2</text>
<text x="1050.9133144861364" y="43.4" font-family="arial" font-size="14px" text-anchor="middle" fill="rgb(0, 0, 0)">stride (2, 2)</text>
<text x="1171.7173592966853" y="72.50293012833274" font-family="arial" font-size="14px" text-anchor="middle" fill="rgb(0, 0, 0)">flatten</text>
<line x1="1225.7173592966853" y1="-48.50293012833273" x2="1325.7173592966853" y2="-6.964404506368992" stroke-width="1" stroke-dasharray="2" stroke="rgb(0, 0, 0)"/>
<line x1="1225.7173592966853" y1="48.50293012833273" x2="1325.7173592966853" y2="-6.964404506368992" stroke-width="1" stroke-dasharray="2" stroke="rgb(0, 0, 0)"/>
<text x="1275.7173592966853" y="72.50293012833274" font-family="arial" font-size="14px" text-anchor="middle" fill="rgb(0, 0, 0)">dense</text>
<line x1="1329.7173592966853" y1="-13.928809012737984" x2="1429.7173592966853" y2="-0.9952679263837431" stroke-width="1" stroke-dasharray="2" stroke="rgb(0, 0, 0)"/>
<line x1="1329.7173592966853" y1="13.928809012737984" x2="1429.7173592966853" y2="-0.9952679263837431" stroke-width="1" stroke-dasharray="2" stroke="rgb(0, 0, 0)"/>
<text x="1379.7173592966853" y="37.928809012737986" font-family="arial" font-size="14px" text-anchor="middle" fill="rgb(0, 0, 0)">dense</text>
</svg>